# xmcd
#
# Track frame offsets: 
#        150
#        18971
#        38847
#        63749
#        94143
#        123071
#        147703
#        161183
#        186214
#        209381
#        227280
#        242878
#        264765
#        282713
#        313193
#        334076
#
# Disc length: 4649 seconds
#
# Revision: 2
# Processed by: cddbd v1.5.2PL0 Copyright (c) Steve Scherf et al.
# Submitted via: ExactAudioCopy v1.0b3
#
DISCID=ed122710
DTITLE=Various Artist - Blues Club
DYEAR=2008
DGENRE=Blues
TTITLE0=Keb' Mo' - Gimme What You Got
TTITLE1=Albert Collins - Hooked On You
TTITLE2=Joe Bonamassa - The River
TTITLE3=The Allman Brothers Band - Gamblers's Roll
TTITLE4=Jimmie Vaughan - Dengue Woman Blues
TTITLE5=Sahnnon Curfman - The Weight
TTITLE6=Taj Mahal - Statesboro Blues
TTITLE7=Dr. John - I Don't Mean A Thing (If It Ain't Got That Swing)
TTITLE8=Junior Wells - What My Mama Told Me (Live)
TTITLE9=Stevie Ray Vaughan - Change It
TTITLE10=The Gregg Allman Band - Demons
TTITLE11=George Thororgood and The Destroyers - Bad To The Bone
TTITLE12=Big Brother and The Holding Company - Burried Alive In The Blue
TTITLE12=s
TTITLE13=Great White - Since I've Been Loving You (Live)
TTITLE14=Jan James - Limousine Blues
TTITLE15=Nathan Cavaleri Band - Lou's Blues
EXTD=YEAR: 2008
EXTT0=
EXTT1=
EXTT2=
EXTT3=
EXTT4=
EXTT5=
EXTT6=
EXTT7=
EXTT8=
EXTT9=
EXTT10=
EXTT11=
EXTT12=
EXTT13=
EXTT14=
EXTT15=
PLAYORDER=
